<svg class="svg-icon" style="vertical-align: middle;fill: currentColor;overflow: hidden;" viewBox="0 0 1024 1024"
  version="1.1" xmlns="http://www.w3.org/2000/svg">
  <path
    d="M149.1 709.2l62.3-38.2c13.6-4.9 12.6-24.5-1.5-28l-81.8-4.3c-21.2 0-38.4 17.2-38.4 38.4 0.1 30.4 33.9 48.7 59.4 32.1z"
    fill="#BF8113" />
  <path
    d="M128.2 730.5c-8.7 0-17.4-2.2-25.5-6.6-17.5-9.5-28-27-28-46.9 0-29.4 23.9-53.4 53.4-53.4h0.8l83.2 4.3 1.4 0.3c12.8 3.1 21.8 14.1 22.5 27.2 0.7 12.5-6.5 23.9-17.9 28.8l-61 37.5c-8.9 5.9-18.9 8.8-28.9 8.8z m-0.4-76.8c-12.7 0.2-23 10.6-23 23.4 0 8.7 4.6 16.4 12.2 20.5 7.7 4.1 16.6 3.8 23.9-1l0.4-0.2 63-38.7-76.5-4z"
    fill="#0B0E54" />
  <path
    d="M324.1 540.4c60-377.8 395.4-263.6 395.4-263.6 294.9 94.4 206.1 357.8 184.3 411.9-2.3 5.6-8.4 8.5-14.2 6.8-89.3-26-162.7-23.3-162.7-23.3s-48.3 35.7-114.2 66.8c-99.1 46.7-215.2 42.4-310.9-11-33.2-18.6-70.1-41.7-105-69 0 0-36.6-26.4-84.9-16.1l212.2-102.5z"
    fill="#FFB727" />
  <path
    d="M711.8 273.9s-57.7-19.6-129.6-15.8c53.3 2.8 101.3 12 101.3 12 297.3 95.2 158.2 398.3 158.1 398.5 7.8 1.9 34 7.8 41.6 11.4 8.3 4 12.1-1.2 14.3-6.8 22.1-54.6 111.7-304.2-185.7-399.3z"
    fill="#FF7F00" />
  <path
    d="M360.2 576.4c-3.1-6.5-10.9-9.2-17.4-6.1l-19 9.2c-6.5 3.1-9.2 10.9-6.1 17.4 2.2 4.6 6.9 7.4 11.7 7.4 1.9 0 3.8-0.4 5.6-1.3l19-9.2c6.6-3.2 9.3-10.9 6.2-17.4zM280 600.7l-50.8 24.5c-6.5 3.1-9.2 10.9-6.1 17.4 2.2 4.6 6.9 7.4 11.7 7.4 1.9 0 3.8-0.4 5.6-1.3l50.8-24.5c6.5-3.1 9.2-10.9 6.1-17.4-3.1-6.5-10.9-9.2-17.3-6.1z"
    fill="#FFFFFF" />
  <path d="M675.1 257.7c3.4-12.2 26.1-16.5 50.9-9.7 24.7 6.8 42 22.3 38.6 34.4" fill="#0B0E54" />
  <path
    d="M764.6 292.4c-0.9 0-1.8-0.1-2.7-0.4-5.3-1.5-8.4-7-7-12.3 0.3-1.3-0.9-4.7-5.8-9.1-6.1-5.4-15.5-10.2-25.9-13-10.4-2.9-20.9-3.6-28.9-2.1-6.4 1.2-9.3 3.5-9.6 4.8-1.5 5.3-7 8.4-12.3 7-5.3-1.5-8.4-7-7-12.3 2.7-9.8 11.6-16.5 25.2-19.1 11.1-2.1 24.6-1.2 38 2.5s25.4 9.9 33.8 17.4c10.3 9.2 14.5 19.6 11.8 29.3-1.2 4.4-5.2 7.3-9.6 7.3z"
    fill="#0B0E54" />
  <path
    d="M730.9 267.5l-3 4.1c-1.5-4.7-5.6-8.3-10.9-8.9-2.4-0.3-60.1-6.5-124.6 26.7-37.8 19.4-70 48.4-95.9 86.1-30.1 43.8-51.4 99.5-63.6 165.6-14.8-4.3-28.4-7.9-40.8-10.7-15.3-3.5-61.7-14.1-76.2-2-6.4 5.3-7.2 14.8-1.9 21.1 4.6 5.5 12.3 6.9 18.4 3.7 5.9-1.3 67.6-9.2 387.4 129.3 1.9 0.8 4 1.2 6 1.2 5.8 0 11.3-3.4 13.8-9 0.8-1.9 1.2-3.9 1.2-5.9 2.4-1.8 4.3-4.3 5.4-7.4 100.9-304.3-10.5-390.4-15.3-393.9z m-12.4 381.8c-106.4-45.8-193.6-79.4-260.6-100.6 11.3-63.4 31.3-116.5 59.4-157.7 23.2-34.1 52.1-60.3 85.7-77.8 57.6-30.1 110.5-24.7 111-24.6 0.5 0.1 0.9 0.1 1.4 0.1l-2.3 3.1-0.1-0.1c0.2 0.2 24.5 19.4 37.3 72.3 7.7 31.6 9.9 68.7 6.5 110.4-4.2 51.7-17.1 110.6-38.3 174.9z"
    fill="#0B0E54" />
  <path
    d="M468 786.2c-60 0-119.9-15.1-173.7-45.1-39.4-22-75.3-45.6-106.6-70-2.4-1.6-33.5-21.9-72.9-13.5-7.4 1.6-14.9-2.6-17.3-9.8-2.5-7.2 0.8-15.1 7.7-18.4l205.3-99.1c20.1-116.9 68.5-199.2 144.1-244.8 49.9-30.1 112.4-43.6 180.6-39 50.1 3.3 85.9 15.1 88.8 16.1 97.8 31.3 164.6 83.9 198.6 156.5 52.9 112.7 9.5 239.2-5.1 275.3-5.1 12.8-19.1 19.4-32.3 15.6-73.5-21.5-136.8-22.9-153.6-22.8-13 9.2-56.3 38.8-112.8 65.4-47.6 22.5-99.2 33.6-150.8 33.6zM171 630.9c20.5 6.1 33.5 15.2 34.4 15.9 0.2 0.1 0.3 0.2 0.5 0.4 30.1 23.6 64.8 46.4 103 67.7 91.6 51.1 202.7 55.1 297.2 10.5 63.6-30 111.2-65 111.7-65.3 2.4-1.8 5.3-2.8 8.4-2.9 3.1-0.1 75.5-2.5 164.7 23.1 14.4-36.6 51.1-149.5 4.6-248.5-30.4-64.7-91.2-112-180.7-140.7-0.1 0-0.2-0.1-0.3-0.1-0.3-0.1-34.8-11.6-82.2-14.7-43.1-2.8-106.2 1-162.4 34.9-69.2 41.9-113.3 119.8-131 231.6-0.8 4.9-3.9 9-8.3 11.2L171 630.9z m153.1-90.5z"
    fill="#0B0E54" />
</svg>